# xmcd
#
# Track frame offsets: 
#        150
#        17917
#        33067
#        50802
#        67140
#        83850
#        103620
#        123705
#        140862
#        161677
#        175772
#
# Disc length: 2580 seconds
#
# Revision: 4
# Processed by: cddbd v1.5.2PL0 Copyright (c) Steve Scherf et al.
# Submitted via: ExactAudioCopy v0.95b2
#
DISCID=9e0a120b
DTITLE=Room21 - Trip The Light Fantastic
DYEAR=2006
DGENRE=Rock
TTITLE0=Don't Leave Me Alone
TTITLE1=Sexy Toy Dolls
TTITLE2=Lovers Kissing Lovers
TTITLE3=The Alley
TTITLE4=Muse
TTITLE5=Criminal Affair
TTITLE6=Goodbye
TTITLE7=D.O.L
TTITLE8=These Walls
TTITLE9=Future's Calling
TTITLE10=Where Does She Go?
EXTD=
EXTT0=
EXTT1=
EXTT2=
EXTT3=
EXTT4=
EXTT5=
EXTT6=
EXTT7=
EXTT8=
EXTT9=
EXTT10=
PLAYORDER=
